<?xml version="1.0" encoding="utf-8"?>
<!-- Generator: Adobe Illustrator 25.0.0, SVG Export Plug-In . SVG Version: 6.00 Build 0)  -->
<svg version="1.1" id="Layer_1" xmlns="http://www.w3.org/2000/svg" xmlns:xlink="http://www.w3.org/1999/xlink" x="0px" y="0px"
	 viewBox="0 0 2000 2000" style="enable-background:new 0 0 2000 2000;" xml:space="preserve">
<style type="text/css">
	.st0{fill:none;}
</style>
<path d="M817.12,1144.21c6.52-7.89,9.81-12.61,13.82-16.62c185.63-185.75,371.32-371.43,557.01-557.12
	c46.42-46.42,97.82-46.46,144.29-0.12c11.08,11.04,22.28,21.97,33.15,33.22c38.58,39.95,38.62,93.52-0.6,133.13
	c-57.7,58.27-115.89,116.05-173.88,174.04c-174.96,174.97-349.98,349.87-524.76,525.01c-19.43,19.47-41.26,28.87-67.94,19.56
	c-9.45-3.3-18.66-9.64-25.82-16.77c-112.88-112.36-225.53-224.94-337.94-337.77c-39.3-39.44-39.15-93.36-0.47-133.06
	c12.9-13.24,25.95-26.34,39.22-39.21c39.21-38.07,93.35-38.22,132.1,0.25c66.94,66.46,133.51,133.29,200.13,200.08
	C809.08,1132.47,811.76,1137.08,817.12,1144.21z"/>
<rect x="808" y="808" class="st0" width="384" height="384"/>
</svg>
