<?xml version="1.0" encoding="utf-8"?>
<!-- Generator: Adobe Illustrator 25.0.0, SVG Export Plug-In . SVG Version: 6.00 Build 0)  -->
<svg version="1.1" id="Layer_1" xmlns="http://www.w3.org/2000/svg" xmlns:xlink="http://www.w3.org/1999/xlink" x="0px" y="0px"
	 viewBox="0 0 2000 2000" style="enable-background:new 0 0 2000 2000;" xml:space="preserve">
<style type="text/css">
	.st0{fill:#FFFFFF;}
</style>
<g>
	<path class="st0" d="M994.05,1006.49c-0.07-0.03-0.15-0.06-0.22-0.09c-0.47-0.25-0.58-0.88-0.24-1.28
		c0.04-0.04,0.08-0.09,0.12-0.13c1.62-1.62,3.25-3.25,4.87-4.87c0.03-0.03,0.07-0.06,0.12-0.1c-0.04-0.05-0.08-0.08-0.11-0.12
		c-1.64-1.64-3.28-3.28-4.92-4.92c-0.38-0.38-0.38-0.92-0.01-1.26c0.32-0.28,0.79-0.29,1.11-0.01c0.05,0.04,0.1,0.09,0.15,0.14
		c1.62,1.62,3.24,3.24,4.86,4.86c0.03,0.03,0.07,0.06,0.11,0.1c0.04-0.04,0.08-0.07,0.11-0.11c1.64-1.64,3.28-3.28,4.92-4.92
		c0.46-0.46,1.18-0.32,1.41,0.26c0.02,0.05,0.04,0.11,0.06,0.17c0,0.09,0,0.19,0,0.28c-0.06,0.26-0.23,0.44-0.41,0.62
		c-1.6,1.59-3.2,3.19-4.79,4.79c-0.03,0.03-0.08,0.05-0.14,0.09c0.07,0.07,0.11,0.1,0.14,0.13c1.6,1.6,3.2,3.2,4.8,4.8
		c0.18,0.18,0.34,0.36,0.4,0.62c0,0.09,0,0.19,0,0.28c-0.1,0.35-0.31,0.58-0.66,0.69c-0.13,0-0.25,0-0.38,0
		c-0.24-0.08-0.42-0.26-0.6-0.43c-1.58-1.59-3.17-3.17-4.75-4.76c-0.03-0.03-0.07-0.07-0.13-0.12c-0.04,0.05-0.07,0.09-0.1,0.13
		c-1.59,1.59-3.18,3.18-4.77,4.78c-0.17,0.17-0.34,0.33-0.57,0.41C994.3,1006.49,994.18,1006.49,994.05,1006.49z"/>
	<path class="st0" d="M1005.73,1006.49c0.35-0.1,0.56-0.34,0.66-0.69c0,0.23,0,0.46,0,0.69
		C1006.17,1006.49,1005.95,1006.49,1005.73,1006.49z"/>
</g>
</svg>
