<?xml version="1.0" encoding="utf-8"?>
<!-- Generator: Adobe Illustrator 25.0.0, SVG Export Plug-In . SVG Version: 6.00 Build 0)  -->
<svg version="1.1" id="Layer_1" xmlns="http://www.w3.org/2000/svg" xmlns:xlink="http://www.w3.org/1999/xlink" x="0px" y="0px"
	 viewBox="0 0 16 16" style="enable-background:new 0 0 2000 2000;" xml:space="preserve">
<g>
	<path d="M999.24,1005.22c0.14-0.38,0.42-0.51,0.8-0.51c3.82,0.01,7.65,0,11.47,0c0.36,0,0.61,0.18,0.7,0.5
		c0.11,0.38-0.19,0.8-0.59,0.82c-0.05,0-0.1,0-0.15,0c-3.79,0-7.58,0-11.37,0.01c-0.4,0-0.71-0.09-0.87-0.49
		C999.24,1005.44,999.24,1005.33,999.24,1005.22z"/>
	<path d="M999.24,996.11c0.02-0.05,0.05-0.09,0.08-0.14c0.14-0.24,0.34-0.34,0.62-0.34c3.7,0,7.4,0,11.1,0c0.17,0,0.35,0,0.52,0
		c0.39,0,0.68,0.27,0.68,0.63c0,0.39-0.27,0.68-0.67,0.69c-0.04,0-0.08,0-0.11,0c-3.8,0-7.59,0-11.39,0c-0.39,0-0.68-0.13-0.82-0.51
		C999.24,996.33,999.24,996.22,999.24,996.11z"/>
	<path d="M999.24,1000.68c0.09-0.26,0.26-0.44,0.54-0.49c0.05-0.01,0.09-0.01,0.14-0.01c3.88,0,7.76,0,11.63,0
		c0.35,0,0.64,0.24,0.68,0.56c0.04,0.36-0.17,0.66-0.53,0.75c-0.05,0.01-0.1,0.01-0.15,0.01c-3.88,0-7.76,0-11.65,0
		c-0.29,0-0.5-0.14-0.62-0.41c-0.01-0.02-0.03-0.05-0.04-0.07C999.24,1000.9,999.24,1000.79,999.24,1000.68z"/>
</g>
</svg>
